# xmcd
#
# Track frame offsets:
#   150
#   13638
#   30570
#   46600
#   61823
#   74892
#   91633
#   108627
#   122506
#   135621
#   158998
#   174712
#   188848
#   205374
#   219767
#   233855
#   249626
#   264076
#   276218
#   291407
#
# Disc length: 4088 seconds
#
# Revision: 0
# Processed by: cddbd v1.5.1PL0 Copyright (c) Steve Scherf et al.
# Submitted via: Media_Universe 3.0
#
DISCID=1f0ff614
DTITLE=Rick Trevino - In My Dreams and Learning As You Go
DYEAR=1900
DGENRE=Country
TTITLE0=Overnight Success
TTITLE1=In My Dreams
TTITLE2=She'll Never Know
TTITLE3=Downside Of Love
TTITLE4=Beautiful Day
TTITLE5=Olivia
TTITLE6=Are We Almost There
TTITLE7=Heartaches
TTITLE8=So Over
TTITLE9=Have You Ever Really Loved A Woman
TTITLE10=Learning As You Go
TTITLE11=Running Out Of Reasons To Run
TTITLE12=I Only Get This Way With You
TTITLE13=SeeRock City
TTITLE14=Oh Jenny
TTITLE15=Serious Love
TTITLE16=I Wish He Wouldnt Treat Her That Way
TTITLE17=Anytime
TTITLE18=Mary's Just A Plain Jane
TTITLE19=I'm Here For You
EXTD=
EXTT0=
EXTT1=
EXTT2=
EXTT3=
EXTT4=
EXTT5=
EXTT6=
EXTT7=
EXTT8=
EXTT9=
EXTT10=
EXTT11=
EXTT12=
EXTT13=
EXTT14=
EXTT15=
EXTT16=
EXTT17=
EXTT18=
EXTT19=
PLAYORDER=
